<svg width="960" height="360" viewBox="0 0 960 360" xmlns="http://www.w3.org/2000/svg"><title>Stardew Valley farm — top down</title><defs><linearGradient id="gnd" x1="0" y1="0" x2="0" y2="1"><stop offset="0" stop-color="#8FBF6F"/><stop offset="1" stop-color="#7AAE5C"/></linearGradient><style>
@keyframes walkA{0%{transform:translate(-100px,202px)}20%{transform:translate(400px,202px)}60%{transform:translate(400px,202px)}82%{transform:translate(1020px,202px)}100%{transform:translate(1020px,202px)}}
.npcA{animation:walkA 26s linear infinite}
@keyframes walkB{0%{transform:translate(1000px,202px)}20%{transform:translate(480px,202px)}46%{transform:translate(480px,202px)}68%{transform:translate(-100px,202px)}100%{transform:translate(-100px,202px)}}
.npcB{animation:walkB 26s linear infinite}
@keyframes walkC{0%{transform:translate(660px,-76px)}18%{transform:translate(150px,94px)}55%{transform:translate(150px,94px)}78%{transform:translate(-100px,94px)}100%{transform:translate(-100px,94px)}}
.npcC{animation:walkC 26s linear infinite}
@keyframes walkD{0%{transform:translate(-100px,274px)}30%{transform:translate(220px,94px)}55%{transform:translate(220px,94px)}80%{transform:translate(1000px,94px)}100%{transform:translate(1000px,94px)}}
.npcD{animation:walkD 26s linear infinite}
@keyframes npcBob{0%,100%{transform:translateY(0)}50%{transform:translateY(-2px)}}
.bobA{animation:npcBob .4s linear infinite}
@keyframes legA{0%,100%{transform:translateY(0)}50%{transform:translateY(3px)}}
.legA{animation:legA .4s linear infinite}
.legB{animation:legA .4s linear infinite;animation-delay:-.2s}
@keyframes bA1{0%,21%,36%,100%{opacity:0}22%,35%{opacity:1}}
.bA1{animation:bA1 26s linear infinite}
@keyframes bB1{0%,37%,52%,100%{opacity:0}38%,51%{opacity:1}}
.bB1{animation:bB1 26s linear infinite}
@keyframes bA2{0%,53%,66%,100%{opacity:0}54%,65%{opacity:1}}
.bA2{animation:bA2 26s linear infinite}
@keyframes bD1{0%,31%,44%,100%{opacity:0}32%,43%{opacity:1}}
.bD1{animation:bD1 26s linear infinite}
@keyframes bC1{0%,45%,58%,100%{opacity:0}46%,57%{opacity:1}}
.bC1{animation:bC1 26s linear infinite}
@keyframes tw{0%,100%{opacity:.2}50%{opacity:1}}
.sparkle{animation:tw 2.2s ease-in-out infinite}
@keyframes fire{0%,100%{opacity:1}50%{opacity:.35}}
.fire{animation:fire .5s ease-in-out infinite}
.fire2{animation:fire .5s ease-in-out infinite;animation-delay:-.25s}
@keyframes zz{0%{opacity:0;transform:translate(0,0)}30%{opacity:1}100%{opacity:0;transform:translate(10px,-18px)}}
.z1{animation:zz 2.4s ease-out infinite}
.z2{animation:zz 2.4s ease-out infinite;animation-delay:-.8s}
.z3{animation:zz 2.4s ease-out infinite;animation-delay:-1.6s}
@keyframes duck{from{transform:translate(-40px,88px)}to{transform:translate(180px,88px)}}
.duck{animation:duck 20s linear infinite}
@keyframes ripple{0%{transform:scale(1);opacity:.5}100%{transform:scale(2.6);opacity:0}}
.ripple{transform-box:fill-box;transform-origin:center;animation:ripple 2.6s ease-out infinite}
.ripple2{transform-box:fill-box;transform-origin:center;animation:ripple 2.6s ease-out infinite;animation-delay:-1.3s}
</style></defs><rect width="960" height="360" fill="url(#gnd)"/><rect x="30" y="30" width="3" height="5" fill="#5D8A4C"/><rect x="90" y="180" width="3" height="5" fill="#5D8A4C"/><rect x="260" y="40" width="3" height="5" fill="#5D8A4C"/><rect x="340" y="160" width="3" height="5" fill="#5D8A4C"/><rect x="520" y="30" width="3" height="5" fill="#5D8A4C"/><rect x="560" y="200" width="3" height="5" fill="#5D8A4C"/><rect x="700" y="160" width="3" height="5" fill="#5D8A4C"/><rect x="820" y="300" width="3" height="5" fill="#5D8A4C"/><rect x="40" y="320" width="3" height="5" fill="#5D8A4C"/><rect x="300" y="320" width="3" height="5" fill="#5D8A4C"/><rect x="460" y="330" width="3" height="5" fill="#5D8A4C"/><rect x="900" y="60" width="3" height="5" fill="#5D8A4C"/><rect x="60" y="120" width="3" height="5" fill="#5D8A4C"/><rect x="640" y="330" width="3" height="5" fill="#5D8A4C"/><rect x="760" y="60" width="3" height="5" fill="#5D8A4C"/><rect x="0" y="240" width="960" height="36" fill="#C9A66B"/><rect x="436" y="0" width="36" height="360" fill="#C9A66B"/><rect x="0" y="240" width="960" height="3" fill="#B08B4F"/><rect x="0" y="273" width="960" height="3" fill="#B08B4F"/><rect x="70" y="252" width="5" height="3" fill="#A8834A"/><rect x="180" y="262" width="5" height="3" fill="#A8834A"/><rect x="300" y="248" width="5" height="3" fill="#A8834A"/><rect x="600" y="258" width="5" height="3" fill="#A8834A"/><rect x="760" y="250" width="5" height="3" fill="#A8834A"/><rect x="880" y="264" width="5" height="3" fill="#A8834A"/><rect x="448" y="60" width="5" height="3" fill="#A8834A"/><rect x="448" y="140" width="5" height="3" fill="#A8834A"/><rect x="448" y="310" width="5" height="3" fill="#A8834A"/><rect x="452" y="220" width="5" height="3" fill="#A8834A"/><ellipse cx="150" cy="98" rx="76" ry="44" fill="#3A7BC4"/><ellipse cx="150" cy="95" rx="75" ry="42" fill="#4A90D9"/><ellipse cx="150" cy="92" rx="55" ry="30" fill="#6FB3EA"/><ellipse cx="106" cy="104" rx="10" ry="6" fill="#5DA64A"/><ellipse cx="196" cy="86" rx="8" ry="5" fill="#5DA64A"/><rect class="sparkle" x="120" y="80" width="3" height="3" fill="#BFE4FF"/><rect class="sparkle" style="animation-delay:-.8s" x="170" y="100" width="3" height="3" fill="#BFE4FF"/><rect class="sparkle" style="animation-delay:-1.5s" x="90" y="96" width="3" height="3" fill="#BFE4FF"/><ellipse class="ripple" cx="160" cy="104" rx="5" ry="3" fill="none" stroke="#BFE4FF" stroke-width="1"/><ellipse class="ripple2" cx="160" cy="104" rx="5" ry="3" fill="none" stroke="#BFE4FF" stroke-width="1"/><g class="duck"><g class="bobA"><rect x="4" y="4" width="6" height="4" fill="#F5F5F0"/><rect x="10" y="2" width="4" height="4" fill="#F5F5F0"/><rect x="13" y="3" width="3" height="2" fill="#FF9F1C"/></g></g><rect x="612" y="32" width="316" height="96" fill="none" stroke="#A97C50" stroke-width="4"/><rect x="616" y="44" width="308" height="14" fill="#A9715A"/><rect x="628" y="47" width="6" height="6" fill="#5D8A4C"/><rect x="648" y="47" width="6" height="6" fill="#5D8A4C"/><rect x="668" y="47" width="6" height="6" fill="#5D8A4C"/><rect x="688" y="47" width="6" height="6" fill="#5D8A4C"/><rect x="708" y="47" width="6" height="6" fill="#5D8A4C"/><rect x="728" y="47" width="6" height="6" fill="#5D8A4C"/><rect x="748" y="47" width="6" height="6" fill="#5D8A4C"/><rect x="768" y="47" width="6" height="6" fill="#5D8A4C"/><rect x="788" y="47" width="6" height="6" fill="#5D8A4C"/><rect x="808" y="47" width="6" height="6" fill="#5D8A4C"/><rect x="828" y="47" width="6" height="6" fill="#5D8A4C"/><rect x="848" y="47" width="6" height="6" fill="#5D8A4C"/><rect x="868" y="47" width="6" height="6" fill="#5D8A4C"/><rect x="888" y="47" width="6" height="6" fill="#5D8A4C"/><rect x="908" y="47" width="6" height="6" fill="#5D8A4C"/><rect x="616" y="76" width="308" height="14" fill="#A9715A"/><rect x="628" y="79" width="6" height="6" fill="#5D8A4C"/><rect x="648" y="79" width="6" height="6" fill="#5D8A4C"/><rect x="668" y="79" width="6" height="6" fill="#5D8A4C"/><rect x="688" y="79" width="6" height="6" fill="#5D8A4C"/><rect x="708" y="79" width="6" height="6" fill="#5D8A4C"/><rect x="728" y="79" width="6" height="6" fill="#5D8A4C"/><rect x="748" y="79" width="6" height="6" fill="#5D8A4C"/><rect x="768" y="79" width="6" height="6" fill="#5D8A4C"/><rect x="788" y="79" width="6" height="6" fill="#5D8A4C"/><rect x="808" y="79" width="6" height="6" fill="#5D8A4C"/><rect x="828" y="79" width="6" height="6" fill="#5D8A4C"/><rect x="848" y="79" width="6" height="6" fill="#5D8A4C"/><rect x="868" y="79" width="6" height="6" fill="#5D8A4C"/><rect x="888" y="79" width="6" height="6" fill="#5D8A4C"/><rect x="908" y="79" width="6" height="6" fill="#5D8A4C"/><rect x="616" y="108" width="308" height="14" fill="#A9715A"/><rect x="628" y="111" width="6" height="6" fill="#5D8A4C"/><rect x="648" y="111" width="6" height="6" fill="#5D8A4C"/><rect x="668" y="111" width="6" height="6" fill="#5D8A4C"/><rect x="688" y="111" width="6" height="6" fill="#5D8A4C"/><rect x="708" y="111" width="6" height="6" fill="#5D8A4C"/><rect x="728" y="111" width="6" height="6" fill="#5D8A4C"/><rect x="748" y="111" width="6" height="6" fill="#5D8A4C"/><rect x="768" y="111" width="6" height="6" fill="#5D8A4C"/><rect x="788" y="111" width="6" height="6" fill="#5D8A4C"/><rect x="808" y="111" width="6" height="6" fill="#5D8A4C"/><rect x="828" y="111" width="6" height="6" fill="#5D8A4C"/><rect x="848" y="111" width="6" height="6" fill="#5D8A4C"/><rect x="868" y="111" width="6" height="6" fill="#5D8A4C"/><rect x="888" y="111" width="6" height="6" fill="#5D8A4C"/><rect x="908" y="111" width="6" height="6" fill="#5D8A4C"/><rect x="629" y="42" width="4" height="3" fill="#7B68EE"/><rect x="649" y="42" width="4" height="3" fill="#E76F51"/><rect x="669" y="42" width="4" height="3" fill="#FF6F91"/><rect x="689" y="42" width="4" height="3" fill="#FFD166"/><rect x="709" y="42" width="4" height="3" fill="#7B68EE"/><rect x="729" y="42" width="4" height="3" fill="#E76F51"/><rect x="749" y="42" width="4" height="3" fill="#FF6F91"/><rect x="769" y="42" width="4" height="3" fill="#FFD166"/><rect x="789" y="42" width="4" height="3" fill="#7B68EE"/><rect x="809" y="42" width="4" height="3" fill="#E76F51"/><rect x="829" y="42" width="4" height="3" fill="#FF6F91"/><rect x="849" y="42" width="4" height="3" fill="#FFD166"/><rect x="869" y="42" width="4" height="3" fill="#7B68EE"/><rect x="889" y="42" width="4" height="3" fill="#E76F51"/><rect x="909" y="42" width="4" height="3" fill="#FF6F91"/><rect x="629" y="74" width="4" height="3" fill="#FFD166"/><rect x="649" y="74" width="4" height="3" fill="#7B68EE"/><rect x="669" y="74" width="4" height="3" fill="#E76F51"/><rect x="689" y="74" width="4" height="3" fill="#FF6F91"/><rect x="709" y="74" width="4" height="3" fill="#FFD166"/><rect x="729" y="74" width="4" height="3" fill="#7B68EE"/><rect x="749" y="74" width="4" height="3" fill="#E76F51"/><rect x="769" y="74" width="4" height="3" fill="#FF6F91"/><rect x="789" y="74" width="4" height="3" fill="#FFD166"/><rect x="809" y="74" width="4" height="3" fill="#7B68EE"/><rect x="829" y="74" width="4" height="3" fill="#E76F51"/><rect x="849" y="74" width="4" height="3" fill="#FF6F91"/><rect x="869" y="74" width="4" height="3" fill="#FFD166"/><rect x="889" y="74" width="4" height="3" fill="#7B68EE"/><rect x="909" y="74" width="4" height="3" fill="#E76F51"/><rect x="629" y="106" width="4" height="3" fill="#FF6F91"/><rect x="649" y="106" width="4" height="3" fill="#FFD166"/><rect x="669" y="106" width="4" height="3" fill="#7B68EE"/><rect x="689" y="106" width="4" height="3" fill="#E76F51"/><rect x="709" y="106" width="4" height="3" fill="#FF6F91"/><rect x="729" y="106" width="4" height="3" fill="#FFD166"/><rect x="749" y="106" width="4" height="3" fill="#7B68EE"/><rect x="769" y="106" width="4" height="3" fill="#E76F51"/><rect x="789" y="106" width="4" height="3" fill="#FF6F91"/><rect x="809" y="106" width="4" height="3" fill="#FFD166"/><rect x="829" y="106" width="4" height="3" fill="#7B68EE"/><rect x="849" y="106" width="4" height="3" fill="#E76F51"/><rect x="869" y="106" width="4" height="3" fill="#FF6F91"/><rect x="889" y="106" width="4" height="3" fill="#FFD166"/><rect x="909" y="106" width="4" height="3" fill="#7B68EE"/><rect x="880" y="46" width="4" height="38" fill="#8B5A2B"/><rect x="868" y="50" width="28" height="4" fill="#8B5A2B"/><rect x="874" y="42" width="16" height="8" fill="#C98A3D"/><rect x="876" y="50" width="12" height="12" fill="#E76F51"/><ellipse cx="78" cy="334" rx="18" ry="5" fill="#000000" opacity="0.18"/><rect x="74" y="322" width="8" height="12" fill="#8B5A2B"/><rect x="60" y="300" width="36" height="26" fill="#4F8A3D"/><rect x="64" y="304" width="12" height="10" fill="#6AA84F"/><ellipse cx="318" cy="164" rx="18" ry="5" fill="#000000" opacity="0.18"/><rect x="314" y="152" width="8" height="12" fill="#8B5A2B"/><rect x="300" y="130" width="36" height="26" fill="#4F8A3D"/><rect x="304" y="134" width="12" height="10" fill="#6AA84F"/><ellipse cx="578" cy="94" rx="18" ry="5" fill="#000000" opacity="0.18"/><rect x="574" y="82" width="8" height="12" fill="#8B5A2B"/><rect x="560" y="60" width="36" height="26" fill="#4F8A3D"/><rect x="564" y="64" width="12" height="10" fill="#6AA84F"/><ellipse cx="778" cy="334" rx="18" ry="5" fill="#000000" opacity="0.18"/><rect x="774" y="322" width="8" height="12" fill="#8B5A2B"/><rect x="760" y="300" width="36" height="26" fill="#4F8A3D"/><rect x="764" y="304" width="12" height="10" fill="#6AA84F"/><ellipse cx="918" cy="254" rx="18" ry="5" fill="#000000" opacity="0.18"/><rect x="914" y="242" width="8" height="12" fill="#8B5A2B"/><rect x="900" y="220" width="36" height="26" fill="#4F8A3D"/><rect x="904" y="224" width="12" height="10" fill="#6AA84F"/><ellipse cx="198" cy="364" rx="18" ry="5" fill="#000000" opacity="0.18"/><rect x="194" y="352" width="8" height="12" fill="#8B5A2B"/><rect x="180" y="330" width="36" height="26" fill="#4F8A3D"/><rect x="184" y="334" width="12" height="10" fill="#6AA84F"/><rect x="572" y="172" width="316" height="182" rx="6" fill="#000000" opacity="0.18"/><rect x="576" y="176" width="308" height="172" rx="4" fill="none" stroke="#5D8A4C" stroke-width="3" stroke-dasharray="8 6"/><rect x="580" y="180" width="300" height="164" fill="#D9B380"/><rect x="584" y="200" width="292" height="1" fill="#C49A66" opacity="0.7"/><rect x="584" y="212" width="292" height="1" fill="#C49A66" opacity="0.7"/><rect x="584" y="224" width="292" height="1" fill="#C49A66" opacity="0.7"/><rect x="584" y="236" width="292" height="1" fill="#C49A66" opacity="0.7"/><rect x="584" y="248" width="292" height="1" fill="#C49A66" opacity="0.7"/><rect x="584" y="260" width="292" height="1" fill="#C49A66" opacity="0.7"/><rect x="584" y="272" width="292" height="1" fill="#C49A66" opacity="0.7"/><rect x="584" y="284" width="292" height="1" fill="#C49A66" opacity="0.7"/><rect x="584" y="296" width="292" height="1" fill="#C49A66" opacity="0.7"/><rect x="584" y="308" width="292" height="1" fill="#C49A66" opacity="0.7"/><rect x="584" y="320" width="292" height="1" fill="#C49A66" opacity="0.7"/><rect x="584" y="332" width="292" height="1" fill="#C49A66" opacity="0.7"/><rect x="584" y="180" width="8" height="164" fill="#C69C6D"/><rect x="868" y="180" width="8" height="164" fill="#C69C6D"/><rect x="584" y="180" width="292" height="8" fill="#C69C6D"/><rect x="584" y="336" width="292" height="8" fill="#B08858"/><rect x="630" y="200" width="84" height="38" fill="#7A9ED6"/><rect x="632" y="202" width="16" height="10" fill="#FFFFFF"/><rect x="650" y="200" width="64" height="38" fill="#6B8EC9"/><rect x="656" y="212" width="44" height="10" fill="#4A90D9"/><rect x="648" y="210" width="10" height="12" fill="#F4C9A8"/><rect x="648" y="206" width="10" height="4" fill="#7A4A26"/><text class="z1" x="700" y="204" font-family="monospace" font-size="11" fill="#6B8EC9">z</text><text class="z2" x="700" y="204" font-family="monospace" font-size="11" fill="#6B8EC9">z</text><text class="z3" x="700" y="204" font-family="monospace" font-size="11" fill="#6B8EC9">z</text><rect x="722" y="202" width="16" height="16" fill="#8B5A2B"/><rect x="726" y="198" width="8" height="6" fill="#FFE066"/><rect x="640" y="250" width="130" height="60" rx="8" fill="#C77DFF"/><rect x="656" y="260" width="98" height="40" rx="6" fill="#B15ED4"/><rect x="700" y="276" width="46" height="34" fill="#8B5A2B"/><rect x="706" y="280" width="10" height="10" fill="#FFFFFF"/><rect x="752" y="282" width="18" height="18" fill="#A9715A"/><rect x="592" y="240" width="22" height="44" fill="#7A6A5A"/><rect x="596" y="268" width="14" height="16" fill="#3E2E26"/><rect class="fire" x="598" y="258" width="4" height="6" fill="#FF9F1C"/><rect class="fire2" x="603" y="254" width="4" height="8" fill="#FF6B35"/><rect class="fire" style="animation-delay:-.15s" x="608" y="260" width="3" height="5" fill="#FFD166"/><rect x="844" y="204" width="16" height="20" fill="#7A4A26"/><rect x="848" y="198" width="8" height="8" fill="#5DA64A"/><rect x="592" y="196" width="16" height="40" fill="#6B4A2B"/><rect x="594" y="200" width="5" height="8" fill="#E76F51"/><rect x="601" y="200" width="5" height="8" fill="#FFD166"/><rect x="594" y="212" width="5" height="8" fill="#7B68EE"/><rect x="601" y="212" width="5" height="8" fill="#FF6F91"/><rect x="40" y="210" width="4" height="4" fill="#7B68EE"/><rect x="120" y="240" width="4" height="4" fill="#7B68EE"/><rect x="260" y="220" width="4" height="4" fill="#7B68EE"/><rect x="520" y="150" width="4" height="4" fill="#7B68EE"/><rect x="560" y="330" width="4" height="4" fill="#7B68EE"/><rect x="90" y="300" width="4" height="4" fill="#FF6F91"/><rect x="300" y="300" width="4" height="4" fill="#7B68EE"/><rect x="480" y="80" width="4" height="4" fill="#7B68EE"/><rect x="560" y="120" width="4" height="4" fill="#7B68EE"/><rect x="720" y="60" width="4" height="4" fill="#7B68EE"/><rect x="940" y="120" width="4" height="4" fill="#7B68EE"/><rect x="330" y="60" width="4" height="4" fill="#FF6F91"/><rect x="640" y="330" width="4" height="4" fill="#7B68EE"/><rect x="120" y="60" width="4" height="4" fill="#7B68EE"/><rect x="380" y="330" width="4" height="4" fill="#7B68EE"/><ellipse cx="500" cy="250" rx="6" ry="4" fill="#8E8E8E"/><ellipse cx="540" cy="260" rx="6" ry="4" fill="#8E8E8E"/><ellipse cx="420" cy="250" rx="6" ry="4" fill="#8E8E8E"/><ellipse cx="200" cy="252" rx="6" ry="4" fill="#8E8E8E"/><g class="npcA"><g class="bobA"><ellipse cx="20" cy="56" rx="16" ry="4" fill="#000000" opacity="0.25"/><g class="legA"><rect x="8" y="40" width="4" height="4" fill="#8B5A2B"/><rect x="12" y="40" width="4" height="4" fill="#8B5A2B"/><rect x="8" y="44" width="4" height="4" fill="#8B5A2B"/><rect x="12" y="44" width="4" height="4" fill="#8B5A2B"/><rect x="8" y="48" width="4" height="4" fill="#8B5A2B"/><rect x="12" y="48" width="4" height="4" fill="#8B5A2B"/><rect x="8" y="52" width="4" height="4" fill="#5D4037"/><rect x="12" y="52" width="4" height="4" fill="#5D4037"/></g><g class="legB"><rect x="20" y="40" width="4" height="4" fill="#8B5A2B"/><rect x="24" y="40" width="4" height="4" fill="#8B5A2B"/><rect x="20" y="44" width="4" height="4" fill="#8B5A2B"/><rect x="24" y="44" width="4" height="4" fill="#8B5A2B"/><rect x="20" y="48" width="4" height="4" fill="#8B5A2B"/><rect x="24" y="48" width="4" height="4" fill="#8B5A2B"/><rect x="20" y="52" width="4" height="4" fill="#5D4037"/><rect x="24" y="52" width="4" height="4" fill="#5D4037"/></g><rect x="12" y="0" width="4" height="4" fill="#C98A3D"/><rect x="16" y="0" width="4" height="4" fill="#C98A3D"/><rect x="20" y="0" width="4" height="4" fill="#C98A3D"/><rect x="24" y="0" width="4" height="4" fill="#C98A3D"/><rect x="8" y="4" width="4" height="4" fill="#C98A3D"/><rect x="12" y="4" width="4" height="4" fill="#C98A3D"/><rect x="16" y="4" width="4" height="4" fill="#C98A3D"/><rect x="20" y="4" width="4" height="4" fill="#C98A3D"/><rect x="24" y="4" width="4" height="4" fill="#C98A3D"/><rect x="28" y="4" width="4" height="4" fill="#C98A3D"/><rect x="8" y="8" width="4" height="4" fill="#F4C9A8"/><rect x="12" y="8" width="4" height="4" fill="#F4C9A8"/><rect x="16" y="8" width="4" height="4" fill="#F4C9A8"/><rect x="20" y="8" width="4" height="4" fill="#F4C9A8"/><rect x="24" y="8" width="4" height="4" fill="#F4C9A8"/><rect x="28" y="8" width="4" height="4" fill="#F4C9A8"/><rect x="4" y="12" width="4" height="4" fill="#F4C9A8"/><rect x="8" y="12" width="4" height="4" fill="#F4C9A8"/><rect x="12" y="12" width="4" height="4" fill="#F4C9A8"/><rect x="16" y="12" width="4" height="4" fill="#F4C9A8"/><rect x="20" y="12" width="4" height="4" fill="#F4C9A8"/><rect x="24" y="12" width="4" height="4" fill="#F4C9A8"/><rect x="28" y="12" width="4" height="4" fill="#F4C9A8"/><rect x="32" y="12" width="4" height="4" fill="#F4C9A8"/><rect x="4" y="16" width="4" height="4" fill="#F4C9A8"/><rect x="8" y="16" width="4" height="4" fill="#3B2E2A"/><rect x="12" y="16" width="4" height="4" fill="#F4C9A8"/><rect x="16" y="16" width="4" height="4" fill="#3B2E2A"/><rect x="20" y="16" width="4" height="4" fill="#F4C9A8"/><rect x="24" y="16" width="4" height="4" fill="#F4C9A8"/><rect x="28" y="16" width="4" height="4" fill="#F4C9A8"/><rect x="32" y="16" width="4" height="4" fill="#F4C9A8"/><rect x="8" y="20" width="4" height="4" fill="#F4C9A8"/><rect x="12" y="20" width="4" height="4" fill="#F4C9A8"/><rect x="16" y="20" width="4" height="4" fill="#F4C9A8"/><rect x="20" y="20" width="4" height="4" fill="#F4C9A8"/><rect x="24" y="20" width="4" height="4" fill="#F4C9A8"/><rect x="28" y="20" width="4" height="4" fill="#F4C9A8"/><rect x="8" y="24" width="4" height="4" fill="#4A90D9"/><rect x="12" y="24" width="4" height="4" fill="#4A90D9"/><rect x="16" y="24" width="4" height="4" fill="#4A90D9"/><rect x="20" y="24" width="4" height="4" fill="#4A90D9"/><rect x="24" y="24" width="4" height="4" fill="#4A90D9"/><rect x="28" y="24" width="4" height="4" fill="#4A90D9"/><rect x="4" y="28" width="4" height="4" fill="#4A90D9"/><rect x="8" y="28" width="4" height="4" fill="#4A90D9"/><rect x="12" y="28" width="4" height="4" fill="#4A90D9"/><rect x="16" y="28" width="4" height="4" fill="#4A90D9"/><rect x="20" y="28" width="4" height="4" fill="#4A90D9"/><rect x="24" y="28" width="4" height="4" fill="#4A90D9"/><rect x="28" y="28" width="4" height="4" fill="#4A90D9"/><rect x="32" y="28" width="4" height="4" fill="#4A90D9"/><rect x="4" y="32" width="4" height="4" fill="#4A90D9"/><rect x="8" y="32" width="4" height="4" fill="#4A90D9"/><rect x="12" y="32" width="4" height="4" fill="#4A90D9"/><rect x="16" y="32" width="4" height="4" fill="#4A90D9"/><rect x="20" y="32" width="4" height="4" fill="#4A90D9"/><rect x="24" y="32" width="4" height="4" fill="#4A90D9"/><rect x="28" y="32" width="4" height="4" fill="#4A90D9"/><rect x="32" y="32" width="4" height="4" fill="#4A90D9"/><rect x="8" y="36" width="4" height="4" fill="#4A90D9"/><rect x="12" y="36" width="4" height="4" fill="#4A90D9"/><rect x="16" y="36" width="4" height="4" fill="#4A90D9"/><rect x="20" y="36" width="4" height="4" fill="#4A90D9"/><rect x="24" y="36" width="4" height="4" fill="#4A90D9"/><rect x="28" y="36" width="4" height="4" fill="#4A90D9"/></g></g><g class="npcB"><g class="bobA"><ellipse cx="20" cy="56" rx="16" ry="4" fill="#000000" opacity="0.25"/><g class="legA"><rect x="8" y="40" width="4" height="4" fill="#4A4E69"/><rect x="12" y="40" width="4" height="4" fill="#4A4E69"/><rect x="8" y="44" width="4" height="4" fill="#4A4E69"/><rect x="12" y="44" width="4" height="4" fill="#4A4E69"/><rect x="8" y="48" width="4" height="4" fill="#4A4E69"/><rect x="12" y="48" width="4" height="4" fill="#4A4E69"/><rect x="8" y="52" width="4" height="4" fill="#2E2A2A"/><rect x="12" y="52" width="4" height="4" fill="#2E2A2A"/></g><g class="legB"><rect x="20" y="40" width="4" height="4" fill="#4A4E69"/><rect x="24" y="40" width="4" height="4" fill="#4A4E69"/><rect x="20" y="44" width="4" height="4" fill="#4A4E69"/><rect x="24" y="44" width="4" height="4" fill="#4A4E69"/><rect x="20" y="48" width="4" height="4" fill="#4A4E69"/><rect x="24" y="48" width="4" height="4" fill="#4A4E69"/><rect x="20" y="52" width="4" height="4" fill="#2E2A2A"/><rect x="24" y="52" width="4" height="4" fill="#2E2A2A"/></g><rect x="12" y="0" width="4" height="4" fill="#3B2E2A"/><rect x="16" y="0" width="4" height="4" fill="#3B2E2A"/><rect x="20" y="0" width="4" height="4" fill="#3B2E2A"/><rect x="24" y="0" width="4" height="4" fill="#3B2E2A"/><rect x="8" y="4" width="4" height="4" fill="#3B2E2A"/><rect x="12" y="4" width="4" height="4" fill="#3B2E2A"/><rect x="16" y="4" width="4" height="4" fill="#3B2E2A"/><rect x="20" y="4" width="4" height="4" fill="#3B2E2A"/><rect x="24" y="4" width="4" height="4" fill="#3B2E2A"/><rect x="28" y="4" width="4" height="4" fill="#3B2E2A"/><rect x="8" y="8" width="4" height="4" fill="#F4C9A8"/><rect x="12" y="8" width="4" height="4" fill="#F4C9A8"/><rect x="16" y="8" width="4" height="4" fill="#F4C9A8"/><rect x="20" y="8" width="4" height="4" fill="#F4C9A8"/><rect x="24" y="8" width="4" height="4" fill="#F4C9A8"/><rect x="28" y="8" width="4" height="4" fill="#F4C9A8"/><rect x="4" y="12" width="4" height="4" fill="#F4C9A8"/><rect x="8" y="12" width="4" height="4" fill="#F4C9A8"/><rect x="12" y="12" width="4" height="4" fill="#F4C9A8"/><rect x="16" y="12" width="4" height="4" fill="#F4C9A8"/><rect x="20" y="12" width="4" height="4" fill="#F4C9A8"/><rect x="24" y="12" width="4" height="4" fill="#F4C9A8"/><rect x="28" y="12" width="4" height="4" fill="#F4C9A8"/><rect x="32" y="12" width="4" height="4" fill="#F4C9A8"/><rect x="4" y="16" width="4" height="4" fill="#F4C9A8"/><rect x="8" y="16" width="4" height="4" fill="#F4C9A8"/><rect x="12" y="16" width="4" height="4" fill="#F4C9A8"/><rect x="16" y="16" width="4" height="4" fill="#F4C9A8"/><rect x="20" y="16" width="4" height="4" fill="#3B2E2A"/><rect x="24" y="16" width="4" height="4" fill="#F4C9A8"/><rect x="28" y="16" width="4" height="4" fill="#3B2E2A"/><rect x="32" y="16" width="4" height="4" fill="#F4C9A8"/><rect x="8" y="20" width="4" height="4" fill="#F4C9A8"/><rect x="12" y="20" width="4" height="4" fill="#F4C9A8"/><rect x="16" y="20" width="4" height="4" fill="#F4C9A8"/><rect x="20" y="20" width="4" height="4" fill="#F4C9A8"/><rect x="24" y="20" width="4" height="4" fill="#F4C9A8"/><rect x="28" y="20" width="4" height="4" fill="#F4C9A8"/><rect x="8" y="24" width="4" height="4" fill="#E76F51"/><rect x="12" y="24" width="4" height="4" fill="#E76F51"/><rect x="16" y="24" width="4" height="4" fill="#E76F51"/><rect x="20" y="24" width="4" height="4" fill="#E76F51"/><rect x="24" y="24" width="4" height="4" fill="#E76F51"/><rect x="28" y="24" width="4" height="4" fill="#E76F51"/><rect x="4" y="28" width="4" height="4" fill="#E76F51"/><rect x="8" y="28" width="4" height="4" fill="#E76F51"/><rect x="12" y="28" width="4" height="4" fill="#E76F51"/><rect x="16" y="28" width="4" height="4" fill="#E76F51"/><rect x="20" y="28" width="4" height="4" fill="#E76F51"/><rect x="24" y="28" width="4" height="4" fill="#E76F51"/><rect x="28" y="28" width="4" height="4" fill="#E76F51"/><rect x="32" y="28" width="4" height="4" fill="#E76F51"/><rect x="4" y="32" width="4" height="4" fill="#E76F51"/><rect x="8" y="32" width="4" height="4" fill="#E76F51"/><rect x="12" y="32" width="4" height="4" fill="#E76F51"/><rect x="16" y="32" width="4" height="4" fill="#E76F51"/><rect x="20" y="32" width="4" height="4" fill="#E76F51"/><rect x="24" y="32" width="4" height="4" fill="#E76F51"/><rect x="28" y="32" width="4" height="4" fill="#E76F51"/><rect x="32" y="32" width="4" height="4" fill="#E76F51"/><rect x="8" y="36" width="4" height="4" fill="#E76F51"/><rect x="12" y="36" width="4" height="4" fill="#E76F51"/><rect x="16" y="36" width="4" height="4" fill="#E76F51"/><rect x="20" y="36" width="4" height="4" fill="#E76F51"/><rect x="24" y="36" width="4" height="4" fill="#E76F51"/><rect x="28" y="36" width="4" height="4" fill="#E76F51"/></g></g><g class="npcC"><g class="bobA"><ellipse cx="20" cy="56" rx="16" ry="4" fill="#000000" opacity="0.25"/><g class="legA"><rect x="8" y="40" width="4" height="4" fill="#5D4037"/><rect x="12" y="40" width="4" height="4" fill="#5D4037"/><rect x="8" y="44" width="4" height="4" fill="#5D4037"/><rect x="12" y="44" width="4" height="4" fill="#5D4037"/><rect x="8" y="48" width="4" height="4" fill="#5D4037"/><rect x="12" y="48" width="4" height="4" fill="#5D4037"/><rect x="8" y="52" width="4" height="4" fill="#2E2A2A"/><rect x="12" y="52" width="4" height="4" fill="#2E2A2A"/></g><g class="legB"><rect x="20" y="40" width="4" height="4" fill="#5D4037"/><rect x="24" y="40" width="4" height="4" fill="#5D4037"/><rect x="20" y="44" width="4" height="4" fill="#5D4037"/><rect x="24" y="44" width="4" height="4" fill="#5D4037"/><rect x="20" y="48" width="4" height="4" fill="#5D4037"/><rect x="24" y="48" width="4" height="4" fill="#5D4037"/><rect x="20" y="52" width="4" height="4" fill="#2E2A2A"/><rect x="24" y="52" width="4" height="4" fill="#2E2A2A"/></g><rect x="12" y="0" width="4" height="4" fill="#7A4A26"/><rect x="16" y="0" width="4" height="4" fill="#7A4A26"/><rect x="20" y="0" width="4" height="4" fill="#7A4A26"/><rect x="24" y="0" width="4" height="4" fill="#7A4A26"/><rect x="8" y="4" width="4" height="4" fill="#7A4A26"/><rect x="12" y="4" width="4" height="4" fill="#7A4A26"/><rect x="16" y="4" width="4" height="4" fill="#7A4A26"/><rect x="20" y="4" width="4" height="4" fill="#7A4A26"/><rect x="24" y="4" width="4" height="4" fill="#7A4A26"/><rect x="28" y="4" width="4" height="4" fill="#7A4A26"/><rect x="8" y="8" width="4" height="4" fill="#F4C9A8"/><rect x="12" y="8" width="4" height="4" fill="#F4C9A8"/><rect x="16" y="8" width="4" height="4" fill="#F4C9A8"/><rect x="20" y="8" width="4" height="4" fill="#F4C9A8"/><rect x="24" y="8" width="4" height="4" fill="#F4C9A8"/><rect x="28" y="8" width="4" height="4" fill="#F4C9A8"/><rect x="4" y="12" width="4" height="4" fill="#F4C9A8"/><rect x="8" y="12" width="4" height="4" fill="#F4C9A8"/><rect x="12" y="12" width="4" height="4" fill="#F4C9A8"/><rect x="16" y="12" width="4" height="4" fill="#F4C9A8"/><rect x="20" y="12" width="4" height="4" fill="#F4C9A8"/><rect x="24" y="12" width="4" height="4" fill="#F4C9A8"/><rect x="28" y="12" width="4" height="4" fill="#F4C9A8"/><rect x="32" y="12" width="4" height="4" fill="#F4C9A8"/><rect x="4" y="16" width="4" height="4" fill="#F4C9A8"/><rect x="8" y="16" width="4" height="4" fill="#3B2E2A"/><rect x="12" y="16" width="4" height="4" fill="#F4C9A8"/><rect x="16" y="16" width="4" height="4" fill="#3B2E2A"/><rect x="20" y="16" width="4" height="4" fill="#F4C9A8"/><rect x="24" y="16" width="4" height="4" fill="#F4C9A8"/><rect x="28" y="16" width="4" height="4" fill="#F4C9A8"/><rect x="32" y="16" width="4" height="4" fill="#F4C9A8"/><rect x="8" y="20" width="4" height="4" fill="#F4C9A8"/><rect x="12" y="20" width="4" height="4" fill="#F4C9A8"/><rect x="16" y="20" width="4" height="4" fill="#F4C9A8"/><rect x="20" y="20" width="4" height="4" fill="#F4C9A8"/><rect x="24" y="20" width="4" height="4" fill="#F4C9A8"/><rect x="28" y="20" width="4" height="4" fill="#F4C9A8"/><rect x="8" y="24" width="4" height="4" fill="#C77DFF"/><rect x="12" y="24" width="4" height="4" fill="#C77DFF"/><rect x="16" y="24" width="4" height="4" fill="#C77DFF"/><rect x="20" y="24" width="4" height="4" fill="#C77DFF"/><rect x="24" y="24" width="4" height="4" fill="#C77DFF"/><rect x="28" y="24" width="4" height="4" fill="#C77DFF"/><rect x="4" y="28" width="4" height="4" fill="#C77DFF"/><rect x="8" y="28" width="4" height="4" fill="#C77DFF"/><rect x="12" y="28" width="4" height="4" fill="#C77DFF"/><rect x="16" y="28" width="4" height="4" fill="#C77DFF"/><rect x="20" y="28" width="4" height="4" fill="#C77DFF"/><rect x="24" y="28" width="4" height="4" fill="#C77DFF"/><rect x="28" y="28" width="4" height="4" fill="#C77DFF"/><rect x="32" y="28" width="4" height="4" fill="#C77DFF"/><rect x="4" y="32" width="4" height="4" fill="#C77DFF"/><rect x="8" y="32" width="4" height="4" fill="#C77DFF"/><rect x="12" y="32" width="4" height="4" fill="#C77DFF"/><rect x="16" y="32" width="4" height="4" fill="#C77DFF"/><rect x="20" y="32" width="4" height="4" fill="#C77DFF"/><rect x="24" y="32" width="4" height="4" fill="#C77DFF"/><rect x="28" y="32" width="4" height="4" fill="#C77DFF"/><rect x="32" y="32" width="4" height="4" fill="#C77DFF"/><rect x="8" y="36" width="4" height="4" fill="#C77DFF"/><rect x="12" y="36" width="4" height="4" fill="#C77DFF"/><rect x="16" y="36" width="4" height="4" fill="#C77DFF"/><rect x="20" y="36" width="4" height="4" fill="#C77DFF"/><rect x="24" y="36" width="4" height="4" fill="#C77DFF"/><rect x="28" y="36" width="4" height="4" fill="#C77DFF"/></g></g><g class="npcD"><g class="bobA"><ellipse cx="20" cy="56" rx="16" ry="4" fill="#000000" opacity="0.25"/><g class="legA"><rect x="8" y="40" width="4" height="4" fill="#333333"/><rect x="12" y="40" width="4" height="4" fill="#333333"/><rect x="8" y="44" width="4" height="4" fill="#333333"/><rect x="12" y="44" width="4" height="4" fill="#333333"/><rect x="8" y="48" width="4" height="4" fill="#333333"/><rect x="12" y="48" width="4" height="4" fill="#333333"/><rect x="8" y="52" width="4" height="4" fill="#1F1F1F"/><rect x="12" y="52" width="4" height="4" fill="#1F1F1F"/></g><g class="legB"><rect x="20" y="40" width="4" height="4" fill="#333333"/><rect x="24" y="40" width="4" height="4" fill="#333333"/><rect x="20" y="44" width="4" height="4" fill="#333333"/><rect x="24" y="44" width="4" height="4" fill="#333333"/><rect x="20" y="48" width="4" height="4" fill="#333333"/><rect x="24" y="48" width="4" height="4" fill="#333333"/><rect x="20" y="52" width="4" height="4" fill="#1F1F1F"/><rect x="24" y="52" width="4" height="4" fill="#1F1F1F"/></g><rect x="12" y="0" width="4" height="4" fill="#2E2A2A"/><rect x="16" y="0" width="4" height="4" fill="#2E2A2A"/><rect x="20" y="0" width="4" height="4" fill="#2E2A2A"/><rect x="24" y="0" width="4" height="4" fill="#2E2A2A"/><rect x="8" y="4" width="4" height="4" fill="#2E2A2A"/><rect x="12" y="4" width="4" height="4" fill="#2E2A2A"/><rect x="16" y="4" width="4" height="4" fill="#2E2A2A"/><rect x="20" y="4" width="4" height="4" fill="#2E2A2A"/><rect x="24" y="4" width="4" height="4" fill="#2E2A2A"/><rect x="28" y="4" width="4" height="4" fill="#2E2A2A"/><rect x="8" y="8" width="4" height="4" fill="#F4C9A8"/><rect x="12" y="8" width="4" height="4" fill="#F4C9A8"/><rect x="16" y="8" width="4" height="4" fill="#F4C9A8"/><rect x="20" y="8" width="4" height="4" fill="#F4C9A8"/><rect x="24" y="8" width="4" height="4" fill="#F4C9A8"/><rect x="28" y="8" width="4" height="4" fill="#F4C9A8"/><rect x="4" y="12" width="4" height="4" fill="#F4C9A8"/><rect x="8" y="12" width="4" height="4" fill="#F4C9A8"/><rect x="12" y="12" width="4" height="4" fill="#F4C9A8"/><rect x="16" y="12" width="4" height="4" fill="#F4C9A8"/><rect x="20" y="12" width="4" height="4" fill="#F4C9A8"/><rect x="24" y="12" width="4" height="4" fill="#F4C9A8"/><rect x="28" y="12" width="4" height="4" fill="#F4C9A8"/><rect x="32" y="12" width="4" height="4" fill="#F4C9A8"/><rect x="4" y="16" width="4" height="4" fill="#F4C9A8"/><rect x="8" y="16" width="4" height="4" fill="#F4C9A8"/><rect x="12" y="16" width="4" height="4" fill="#F4C9A8"/><rect x="16" y="16" width="4" height="4" fill="#F4C9A8"/><rect x="20" y="16" width="4" height="4" fill="#3B2E2A"/><rect x="24" y="16" width="4" height="4" fill="#F4C9A8"/><rect x="28" y="16" width="4" height="4" fill="#3B2E2A"/><rect x="32" y="16" width="4" height="4" fill="#F4C9A8"/><rect x="8" y="20" width="4" height="4" fill="#F4C9A8"/><rect x="12" y="20" width="4" height="4" fill="#F4C9A8"/><rect x="16" y="20" width="4" height="4" fill="#F4C9A8"/><rect x="20" y="20" width="4" height="4" fill="#F4C9A8"/><rect x="24" y="20" width="4" height="4" fill="#F4C9A8"/><rect x="28" y="20" width="4" height="4" fill="#F4C9A8"/><rect x="8" y="24" width="4" height="4" fill="#6AA84F"/><rect x="12" y="24" width="4" height="4" fill="#6AA84F"/><rect x="16" y="24" width="4" height="4" fill="#6AA84F"/><rect x="20" y="24" width="4" height="4" fill="#6AA84F"/><rect x="24" y="24" width="4" height="4" fill="#6AA84F"/><rect x="28" y="24" width="4" height="4" fill="#6AA84F"/><rect x="4" y="28" width="4" height="4" fill="#6AA84F"/><rect x="8" y="28" width="4" height="4" fill="#6AA84F"/><rect x="12" y="28" width="4" height="4" fill="#6AA84F"/><rect x="16" y="28" width="4" height="4" fill="#6AA84F"/><rect x="20" y="28" width="4" height="4" fill="#6AA84F"/><rect x="24" y="28" width="4" height="4" fill="#6AA84F"/><rect x="28" y="28" width="4" height="4" fill="#6AA84F"/><rect x="32" y="28" width="4" height="4" fill="#6AA84F"/><rect x="4" y="32" width="4" height="4" fill="#6AA84F"/><rect x="8" y="32" width="4" height="4" fill="#6AA84F"/><rect x="12" y="32" width="4" height="4" fill="#6AA84F"/><rect x="16" y="32" width="4" height="4" fill="#6AA84F"/><rect x="20" y="32" width="4" height="4" fill="#6AA84F"/><rect x="24" y="32" width="4" height="4" fill="#6AA84F"/><rect x="28" y="32" width="4" height="4" fill="#6AA84F"/><rect x="32" y="32" width="4" height="4" fill="#6AA84F"/><rect x="8" y="36" width="4" height="4" fill="#6AA84F"/><rect x="12" y="36" width="4" height="4" fill="#6AA84F"/><rect x="16" y="36" width="4" height="4" fill="#6AA84F"/><rect x="20" y="36" width="4" height="4" fill="#6AA84F"/><rect x="24" y="36" width="4" height="4" fill="#6AA84F"/><rect x="28" y="36" width="4" height="4" fill="#6AA84F"/></g></g><g class="bA1"><rect x="362" y="146" width="76" height="26" rx="9" fill="#FFFFFF" opacity="0.96"/><polygon points="394,172 406,172 400,180" fill="#FFFFFF" opacity="0.96"/><text x="400" y="164" font-family="Microsoft YaHei, PingFang SC, sans-serif" font-size="13" fill="#333333" text-anchor="middle">你好！</text></g><g class="bB1"><rect x="442" y="146" width="82" height="26" rx="9" fill="#FFFFFF" opacity="0.96"/><polygon points="477,172 489,172 483,180" fill="#FFFFFF" opacity="0.96"/><text x="483" y="164" font-family="Microsoft YaHei, PingFang SC, sans-serif" font-size="13" fill="#333333" text-anchor="middle">去钓鱼？</text></g><g class="bA2"><rect x="362" y="146" width="76" height="26" rx="9" fill="#FFFFFF" opacity="0.96"/><polygon points="394,172 406,172 400,180" fill="#FFFFFF" opacity="0.96"/><text x="400" y="164" font-family="Microsoft YaHei, PingFang SC, sans-serif" font-size="13" fill="#333333" text-anchor="middle">好呀！</text></g><g class="bD1"><rect x="196" y="46" width="120" height="26" rx="9" fill="#FFFFFF" opacity="0.96"/><polygon points="250,72 262,72 256,80" fill="#FFFFFF" opacity="0.96"/><text x="256" y="64" font-family="Microsoft YaHei, PingFang SC, sans-serif" font-size="13" fill="#333333" text-anchor="middle">今天天气真好</text></g><g class="bC1"><rect x="118" y="46" width="128" height="26" rx="9" fill="#FFFFFF" opacity="0.96"/><polygon points="176,72 188,72 182,80" fill="#FFFFFF" opacity="0.96"/><text x="182" y="64" font-family="Microsoft YaHei, PingFang SC, sans-serif" font-size="13" fill="#333333" text-anchor="middle">嗯嗯，去钓鱼吧！</text></g></svg>